<svg id="Capa_1" data-name="Capa 1" xmlns="http://www.w3.org/2000/svg" viewBox="0 0 934.69 216.81"><defs><style>.cls-1{fill:#fff;}</style></defs><title>MEDICINA</title><path class="cls-1" d="M1161.65,722.82a45.89,45.89,0,0,1,6.82-1.1q27.26-.37,54.53-.53,80.84-.37,161.66-.68,81.31-.4,162.64-1c43.63-.29,87.26-.73,130.89-.88,5.83,0,9.18-1.65,11.25-7.48Q1711.52,649,1734.15,587c2.86-7.88,6.14-15.62,9.56-23.28,1.17-2.62,3.32-6,6.69-4.2,1.85,1,3.4,4.4,3.41,6.72.16,32.69,0,65.37,0,98,0,22.6,0,45.2,1,68.17.68-1.63,1.43-3.23,2-4.9,12.61-35.92,25.14-71.86,37.84-107.75a81.62,81.62,0,0,1,6.71-14.25c1-1.75,3.8-2.47,5.78-3.66,1.16,2.17,3.27,4.31,3.34,6.51.42,13.69.38,27.39.49,41.09q.33,36.88.68,73.77c0,2.11.31,4.22.54,7.24a30.19,30.19,0,0,0,3.21-3c9.68-12.55,19.44-25,28.92-37.73,4.44-5.94,4.33-8.15-.42-14.08-6.48-8.09-7.83-17-4.62-26.54,5.17-15.35,22.51-21,36-12.08,5.93,3.92,9.51,11.21,6.69,18.12-3.5,8.58-8.71,16.48-13.38,24.55-1.39,2.39-3.47,4.38-5.38,6.74,5.7,10.78,12.49,20.63,21.25,29,3.45,3.33,7.67,3.24,12.39,2.62a14.57,14.57,0,0,0-.71-2.4c-15.7-30.34,1.79-68.27,31-80.77,12-5.13,25.83-.79,33.47,9.72,1,1.42,2.25,2.7,4,4.79,1-2.61,1.74-4.31,2.21-6.09,6.19-23.42,12.27-46.88,18.56-70.27a44,44,0,0,1,4.85-11.79c1.11-1.78,4.22-2.32,6.43-3.41.9,1.95,2.62,3.93,2.56,5.85-.34,11.54-.89,23.07-1.75,34.58-2.41,32.24-5,64.47-7.52,96.7-.78,10-1.57,20-1.93,30.35,3.81-3.92,6.88-8.92,13.68-6.41,1.7-11.42,5.88-21.07,13.76-28.93a47.25,47.25,0,0,1,79.2,45.46,46.79,46.79,0,0,1-45.7,34.82c-22.25,0-40.67-14.54-46.11-36.27-.33-1.33-1.57-2.44-2.38-3.65-1.25.85-2.84,1.44-3.7,2.58-4,5.42-7.6,11.23-12,16.36-1.75,2.06-5.1,2.75-7.73,4.06-.94-2.58-2.82-5.21-2.68-7.73,1.18-20.25,2.72-40.48,4.2-60.71,1.2-16.43,2.47-32.86,2.67-49.58-.71,1.88-1.54,3.73-2.1,5.65-3,10.61-5.94,21.26-9.06,31.85-1.06,3.62-2.13,7.38-4.08,10.54-1.13,1.83-4.24,3.81-6,3.47-1.62-.31-3.5-3.58-3.75-5.72-.51-4.22.31-8.57.06-12.84a49.1,49.1,0,0,0-1.86-11.65c-3.38-10.74-11.18-14.71-22-11.66a34,34,0,0,0-19.24,14c-8.52,12.49-13.83,26-10.5,41.4.8,3.74,2.89,7.35,5,10.62,2.89,4.48,6.85,7,12.79,6.82,8.57-.29,17.17.35,25.75.69a17.47,17.47,0,0,1,6.29,1c1.53.7,3.6,2.61,3.53,3.88a7.76,7.76,0,0,1-3,5.5c-1.94,1.2-4.73,1.45-7.15,1.43-19.33-.16-38.66-.54-58-.72-5.82-.06-10.71-1.86-14.36-6.45q-7.53-9.5-14.89-19.11c-1.59-2.08-3-4.32-4.94-7.23-3,3.4-5.78,6.3-8.25,9.46-10.09,12.86-20,25.83-30.13,38.69a45.61,45.61,0,0,1-6.78,7.17c-4.14,3.37-7.52,2-8-3.6-.66-7.54-.74-15.14-.78-22.72-.12-25.58-.12-51.16-.18-76.74a3.42,3.42,0,0,0-1.26-2.58c-.76,1.66-1.65,3.28-2.26,5q-18.66,52.89-37.32,105.81a82.86,82.86,0,0,1-6.05,14c-1.06,1.84-4.37,3.75-6.2,3.38s-3.8-3.27-4.64-5.46-.45-4.87-.45-7.33q0-76.51,0-153a6.9,6.9,0,0,0-1.24-4.26q-5.58,15.45-11.16,30.89-13.94,38.6-27.85,77.2c-6.12,16.9-6.16,17-23.79,16.87q-93.23-.52-186.44-1.15-65.94-.44-131.89-1-67.17-.5-134.36-1-28.5-.24-57-.69a49.79,49.79,0,0,1-6-.77C1161.71,724.27,1161.68,723.55,1161.65,722.82Zm852.47-4.59c4.43,1.38,6.9.45,8.55-4.6,4.17-12.77,17.47-20.36,30.48-18.23,13.53,2.21,23.63,13.15,24.18,26.19.61,14.13-8.13,26-21.63,29.29-13.1,3.24-27.13-3.3-32.29-15.84-1.94-4.71-4.4-5.37-8.53-4.13,1.51,15.2,18.41,28.56,35.21,27.9,18.6-.74,33.82-15.7,34.35-33.77.56-19.2-13.45-35.4-32-37A35.29,35.29,0,0,0,2014.12,718.23Zm11,.29c1.47.06,2.92,0,4.34.21,4,.5,7-.28,9.25-4.34,1.24-2.22,4.47-3.95,7.14-4.64,6.88-1.8,13,1.26,15.75,7.07,2.9,6.22,1,14.67-4.07,18.41-4.95,3.64-14.19,3.7-18.33-1.1s-8.42-3.71-13.25-3.4c2.52,10.72,14.34,18.75,25.19,17.36,13.32-1.71,23-12.37,22.69-25.05s-10.24-23.38-22.38-24.24C2038.28,697.87,2027.36,706,2025.13,718.52Zm-19.18-.28c3.71,1.34,4.4-.44,5-3.36A39,39,0,1,1,2087,733c-4.1,16.36-19.3,28.83-35.76,29.33-18.66.56-34.18-10.26-39.45-27.6-.86-2.84-1.47-5.66-5.46-3.7,3,21.25,24,37.87,45.65,36,23.81-2,41.57-21.73,40.76-45.25-.79-22.95-19.84-41.72-42.49-41.87C2027.06,679.76,2007.14,696.9,2006,718.24ZM1856.1,674.71c6-6.8,11.44-12.61,13.11-20.6.43-2.07-.6-5.67-2.18-6.69-4.08-2.62-8.91-2.3-13,.33a9,9,0,0,0-4.11,10.7C1851.47,663.71,1853.78,668.76,1856.1,674.71Z" transform="translate(-1161.65 -557.96)"/><path class="cls-1" d="M1442.88,694.79V564.56c1.31-.13,2.56-.37,3.81-.37,19.16,0,38.32-.05,57.47.18,32.54.38,52.53,18.71,56.3,51.24,1.47,12.71,1.53,25.42-1.41,37.86-5,21-19.09,39.22-49.2,41.11-21.72,1.37-43.57.6-65.36.75A5.48,5.48,0,0,1,1442.88,694.79Zm41-29.83c5.7,0,11,.48,16.17-.1,11.29-1.25,17.36-6.3,18.71-17.64,1.24-10.36,1.67-21.12.26-31.41-2.35-17.26-17.77-25.88-35.14-20.86Z" transform="translate(-1161.65 -557.96)"/><path class="cls-1" d="M1249.85,564.55h40.53c.11,1.61.29,3,.29,4.46,0,24.92.23,49.84-.06,74.76-.19,16.62-6,30.92-19.38,41.58a43,43,0,0,1-25.68,9.26c-11.33.4-22.86.39-34-1.27-20.58-3.06-33.77-17.13-37.74-38.5a83.15,83.15,0,0,1-1.57-14.73c-.16-23.93-.08-47.87-.06-71.8,0-1.12.19-2.25.32-3.66h40.68v5.48c0,23.6,0,47.2,0,70.8a46,46,0,0,0,1,10.29c2.13,9.15,8.64,14,17.88,13.83,8.81-.19,15.06-5.44,16.92-14.44a38.91,38.91,0,0,0,.79-7.84q.09-36.15,0-72.29Z" transform="translate(-1161.65 -557.96)"/><path class="cls-1" d="M1310.92,564.79c28.12,0,55.75-1.09,83.26.3,28.25,1.43,37.51,22.58,34.88,45.79-2.44,21.49-16.4,34-38.94,35.42-10.54.66-21.14.43-31.7.59-2,0-3.92,0-6.45,0V695h-41Zm41,56c9.74-.75,19-.92,28-2.35,6.27-1,10.06-7,9.88-13.13-.19-6.39-4-12.23-10.14-13-9.07-1.14-18.3-1.14-27.76-1.64Z" transform="translate(-1161.65 -557.96)"/><path class="cls-1" d="M1568.12,651.06l37.45-2.26c.66,2.43,1.16,4.63,1.84,6.77,4.1,12.92,20.35,19,32,12,8.78-5.24,8.85-16.12-.44-20.43-6.65-3.08-14.11-4.38-21.13-6.72-8.58-2.85-17.41-5.26-25.55-9.1-12.62-5.94-20.11-16.12-19.65-30.55s8.16-24.49,20.93-30.56c13.56-6.44,28.19-6.87,42.72-5.47a83.47,83.47,0,0,1,23.4,5.58c13.56,5.59,19,17.37,20.91,31.81-8.88.55-17.38,1.09-25.89,1.6-2.63.16-5.31,0-7.91.42-2.84.43-4-.57-4.87-3.28-3.61-11.14-16-16.54-26.28-11.12-2.61,1.36-5.32,5.05-5.46,7.79-.11,2.33,3,6.14,5.42,7,7.42,2.64,15.27,4,22.88,6.18,7,2,14,3.81,20.74,6.52,17.62,7.15,25.45,18.26,25.41,35,0,16.54-9.91,30.93-25.83,37.65-12.67,5.35-26,5.72-39.41,5a103.07,103.07,0,0,1-18.12-2.43C1581.83,687.89,1569.41,672.49,1568.12,651.06Z" transform="translate(-1161.65 -557.96)"/></svg>